<svg xmlns="http://www.w3.org/2000/svg" width="40.161" height="47.458" viewBox="0 0 40.161 47.458">
  <g id="Lovebox" transform="translate(-4404.53 -460.667)">
    <path id="Caminho_1" data-name="Caminho 1" d="M4838.409,426.215V416.49l-15.061-8.772v9.725Zm3.347-9.725v9.725l15.06-8.772v-9.725Zm-8.325-29.551a4.786,4.786,0,0,0-3.262,1.24c-2.308,2.142-.67,5.084,1.941,7.894a66.134,66.134,0,0,0,6.184,5.574c.636.526,1.238,1.024,1.79,1.5.551-.472,1.153-.969,1.79-1.5a66.191,66.191,0,0,0,6.183-5.574c2.611-2.81,4.25-5.752,1.94-7.894a4.909,4.909,0,0,0-6.523,0l-3.39,3.144-3.39-3.144A4.783,4.783,0,0,0,4833.431,386.938Zm-1.379,13.76-7.062,4.113,15.092,8.791,15.091-8.791-4.794-2.793c.674-.635,1.33-1.289,1.96-1.966q.224-.242.448-.493l7.375,4.3v15.5l-20.081,11.7L4820,419.355v-15.5l9.591-5.587c-3.794-4.111-5.93-8.609-1.7-12.534a8.23,8.23,0,0,1,11.074,0l1.115,1.034,1.115-1.034a8.228,8.228,0,0,1,11.073,0c4.258,3.949,2.068,8.479-1.771,12.611a68.44,68.44,0,0,1-6.5,5.875c-1.092.9-2.081,1.721-2.784,2.373l-1.137,1.056-1.138-1.056c-.7-.652-1.691-1.47-2.783-2.373C4834.87,403.152,4833.436,401.965,4832.052,400.7Z" transform="translate(-415.472 77.073)" fill="#f15177"/>
  </g>
</svg>
